<svg xmlns="http://www.w3.org/2000/svg" viewBox="0 0 500 500" width="500" height="500" preserveAspectRatio="xMidYMid meet" style="width: 100%; height: 100%; transform: translate3d(0px, 0px, 0px);"><defs><clipPath id="__lottie_element_109"><rect width="500" height="500" x="0" y="0"></rect></clipPath></defs><g clip-path="url(#__lottie_element_109)"><g transform="matrix(1,0,0,1,0,0)" opacity="1" style="display: block;"><g opacity="1" transform="matrix(1,0,0,1,249.38600158691406,253.4949951171875)"><path fill="rgb(103,62,252)" fill-opacity="1" d=" M240.67599487304688,8.63700008392334 C240.67599487304688,8.63700008392334 -240.67599487304688,8.63700008392334 -240.67599487304688,8.63700008392334 C-240.67599487304688,8.63700008392334 -240.67599487304688,-8.63700008392334 -240.67599487304688,-8.63700008392334 C-240.67599487304688,-8.63700008392334 240.67599487304688,-8.63700008392334 240.67599487304688,-8.63700008392334 C240.67599487304688,-8.63700008392334 240.67599487304688,8.63700008392334 240.67599487304688,8.63700008392334z"></path></g><g opacity="1" transform="matrix(1,0,0,1,250,250)"><path fill="rgb(122,161,250)" fill-opacity="1" d=" M-241.2899932861328,12.131999969482422 C-241.2899932861328,12.131999969482422 -112.46700286865234,12.131999969482422 -112.46700286865234,12.131999969482422 C-112.46700286865234,12.131999969482422 -112.46700286865234,-5.142000198364258 -112.46700286865234,-5.142000198364258 C-112.46700286865234,-5.142000198364258 -241.2899932861328,-5.142000198364258 -241.2899932861328,-5.142000198364258 C-241.2899932861328,-5.142000198364258 -241.2899932861328,12.131999969482422 -241.2899932861328,12.131999969482422z M-250,-250 C-250,-250 250,-250 250,-250 C250,-250 250,250 250,250 C250,250 -250,250 -250,250 C-250,250 -250,-250 -250,-250z M-250,250 C-250,250 250,250 250,250 C250,250 250,-250 250,-250 C250,-250 -250,-250 -250,-250 C-250,-250 -250,250 -250,250z"></path></g><g opacity="1" transform="matrix(1,0,0,1,139.5959930419922,370.35699462890625)"><path fill="rgb(103,62,252)" fill-opacity="1" d=" M0,-108.2249984741211 C0,-108.2249984741211 -11.211999893188477,-108.2249984741211 -11.211999893188477,-108.2249984741211 C-11.211999893188477,-108.2249984741211 -5.340000152587891,108.2249984741211 -5.340000152587891,108.2249984741211 C-5.340000152587891,108.2249984741211 0,108.2249984741211 0,108.2249984741211 C0,108.2249984741211 5.340000152587891,108.2249984741211 5.340000152587891,108.2249984741211 C5.340000152587891,108.2249984741211 11.211999893188477,-108.2249984741211 11.211999893188477,-108.2249984741211 C11.211999893188477,-108.2249984741211 0,-108.2249984741211 0,-108.2249984741211z"></path></g><g opacity="1" transform="matrix(1,0,0,1,134.0800018310547,372.6820068359375)"><path fill="rgb(122,161,250)" fill-opacity="1" d=" M0.17499999701976776,105.9000015258789 C0.17499999701976776,105.9000015258789 5.514999866485596,105.9000015258789 5.514999866485596,105.9000015258789 C5.514999866485596,105.9000015258789 5.514999866485596,-105.89900207519531 5.514999866485596,-105.89900207519531 C5.514999866485596,-105.89900207519531 -5.515999794006348,-103.88300323486328 -5.515999794006348,-103.88300323486328 C-5.515999794006348,-103.88300323486328 0.17499999701976776,105.9000015258789 0.17499999701976776,105.9000015258789z"></path></g><g opacity="1" transform="matrix(1,0,0,1,33.375,370.35699462890625)"><path fill="rgb(103,62,252)" fill-opacity="1" d=" M0.0010000000474974513,-108.2249984741211 C0.0010000000474974513,-108.2249984741211 -11.211999893188477,-108.2249984741211 -11.211999893188477,-108.2249984741211 C-11.211999893188477,-108.2249984741211 -5.339000225067139,108.2249984741211 -5.339000225067139,108.2249984741211 C-5.339000225067139,108.2249984741211 0.0010000000474974513,108.2249984741211 0.0010000000474974513,108.2249984741211 C0.0010000000474974513,108.2249984741211 5.339000225067139,108.2249984741211 5.339000225067139,108.2249984741211 C5.339000225067139,108.2249984741211 11.211999893188477,-108.2249984741211 11.211999893188477,-108.2249984741211 C11.211999893188477,-108.2249984741211 0.0010000000474974513,-108.2249984741211 0.0010000000474974513,-108.2249984741211z"></path></g><g opacity="1" transform="matrix(1,0,0,1,27.860000610351562,372.6820068359375)"><path fill="rgb(121,161,250)" fill-opacity="1" d=" M0.17599999904632568,105.9000015258789 C0.17599999904632568,105.9000015258789 5.515999794006348,105.9000015258789 5.515999794006348,105.9000015258789 C5.515999794006348,105.9000015258789 5.515999794006348,-105.89900207519531 5.515999794006348,-105.89900207519531 C5.515999794006348,-105.89900207519531 -5.514999866485596,-103.88300323486328 -5.514999866485596,-103.88300323486328 C-5.514999866485596,-103.88300323486328 0.17599999904632568,105.9000015258789 0.17599999904632568,105.9000015258789z"></path></g><g opacity="1" transform="matrix(1,0,0,1,465.39801025390625,370.35699462890625)"><path fill="rgb(103,62,252)" fill-opacity="1" d=" M0,-108.2249984741211 C0,-108.2249984741211 -11.211999893188477,-108.2249984741211 -11.211999893188477,-108.2249984741211 C-11.211999893188477,-108.2249984741211 -5.340000152587891,108.2249984741211 -5.340000152587891,108.2249984741211 C-5.340000152587891,108.2249984741211 0,108.2249984741211 0,108.2249984741211 C0,108.2249984741211 5.340000152587891,108.2249984741211 5.340000152587891,108.2249984741211 C5.340000152587891,108.2249984741211 11.211000442504883,-108.2249984741211 11.211000442504883,-108.2249984741211 C11.211000442504883,-108.2249984741211 0,-108.2249984741211 0,-108.2249984741211z"></path></g><g opacity="1" transform="matrix(1,0,0,1,459.88299560546875,372.6820068359375)"><path fill="rgb(122,161,250)" fill-opacity="1" d=" M0.17599999904632568,105.9000015258789 C0.17599999904632568,105.9000015258789 5.514999866485596,105.9000015258789 5.514999866485596,105.9000015258789 C5.514999866485596,105.9000015258789 5.514999866485596,-105.89900207519531 5.514999866485596,-105.89900207519531 C5.514999866485596,-105.89900207519531 -5.514999866485596,-103.88300323486328 -5.514999866485596,-103.88300323486328 C-5.514999866485596,-103.88300323486328 0.17599999904632568,105.9000015258789 0.17599999904632568,105.9000015258789z"></path></g><g opacity="1" transform="matrix(1,0,0,1,359.177001953125,370.35699462890625)"><path fill="rgb(103,62,252)" fill-opacity="1" d=" M0.0010000000474974513,-108.2249984741211 C0.0010000000474974513,-108.2249984741211 -11.211000442504883,-108.2249984741211 -11.211000442504883,-108.2249984741211 C-11.211000442504883,-108.2249984741211 -5.340000152587891,108.2249984741211 -5.340000152587891,108.2249984741211 C-5.340000152587891,108.2249984741211 0.0010000000474974513,108.2249984741211 0.0010000000474974513,108.2249984741211 C0.0010000000474974513,108.2249984741211 5.341000080108643,108.2249984741211 5.341000080108643,108.2249984741211 C5.341000080108643,108.2249984741211 11.211999893188477,-108.2249984741211 11.211999893188477,-108.2249984741211 C11.211999893188477,-108.2249984741211 0.0010000000474974513,-108.2249984741211 0.0010000000474974513,-108.2249984741211z"></path></g><g opacity="1" transform="matrix(1,0,0,1,353.6619873046875,372.6820068359375)"><path fill="rgb(122,161,250)" fill-opacity="1" d=" M0.17499999701976776,105.9000015258789 C0.17499999701976776,105.9000015258789 5.514999866485596,105.9000015258789 5.514999866485596,105.9000015258789 C5.514999866485596,105.9000015258789 5.514999866485596,-105.89900207519531 5.514999866485596,-105.89900207519531 C5.514999866485596,-105.89900207519531 -5.515999794006348,-103.88300323486328 -5.515999794006348,-103.88300323486328 C-5.515999794006348,-103.88300323486328 0.17499999701976776,105.9000015258789 0.17499999701976776,105.9000015258789z"></path></g><g opacity="1" transform="matrix(1,0,0,1,189.12600708007812,196.2550048828125)"><path fill="rgb(37,49,56)" fill-opacity="1" d=" M48.069000244140625,-43.849998474121094 C48.069000244140625,-43.849998474121094 -66.45600128173828,-43.849998474121094 -66.45600128173828,-43.849998474121094 C-70.56700134277344,-43.849998474121094 -73.2249984741211,-40.48699951171875 -72.36299896240234,-36.375 C-72.36299896240234,-36.375 -57.11000061035156,36.375999450683594 -57.11000061035156,36.375999450683594 C-56.24800109863281,40.486000061035156 -52.18000030517578,43.849998474121094 -48.069000244140625,43.849998474121094 C-48.069000244140625,43.849998474121094 66.45600128173828,43.849998474121094 66.45600128173828,43.849998474121094 C70.56700134277344,43.849998474121094 73.22599792480469,40.486000061035156 72.36299896240234,36.375999450683594 C72.36299896240234,36.375999450683594 57.111000061035156,-36.375 57.111000061035156,-36.375 C56.249000549316406,-40.48699951171875 52.18000030517578,-43.849998474121094 48.069000244140625,-43.849998474121094z"></path></g><g opacity="1" transform="matrix(1,0,0,1,190.18499755859375,195.09300231933594)"><path fill="rgb(255,255,255)" fill-opacity="1" d=" M-48.069000244140625,40.86000061035156 C-50.757999420166016,40.86000061035156 -53.6150016784668,38.47800064086914 -54.185001373291016,35.762001037597656 C-54.185001373291016,35.762001037597656 -69.43699645996094,-36.98899841308594 -69.43699645996094,-36.98899841308594 C-69.6719970703125,-38.11000061035156 -69.48400115966797,-39.117000579833984 -68.90699768066406,-39.82699966430664 C-68.36699676513672,-40.49300003051758 -67.49600219726562,-40.86000061035156 -66.45600128173828,-40.86000061035156 C-66.45600128173828,-40.86000061035156 48.069000244140625,-40.86000061035156 48.069000244140625,-40.86000061035156 C50.75699996948242,-40.86000061035156 53.6150016784668,-38.47800064086914 54.18600082397461,-35.76100158691406 C54.18600082397461,-35.76100158691406 69.43800354003906,36.9900016784668 69.43800354003906,36.9900016784668 C69.6719970703125,38.10900115966797 69.48300170898438,39.117000579833984 68.90899658203125,39.82699966430664 C68.35800170898438,40.50299835205078 67.51200103759766,40.86000061035156 66.45600128173828,40.86000061035156 C66.45600128173828,40.86000061035156 -48.069000244140625,40.86000061035156 -48.069000244140625,40.86000061035156z"></path></g><g opacity="1" transform="matrix(1,0,0,1,233.33900451660156,195.09300231933594)"><path fill="rgb(103,62,252)" fill-opacity="1" d=" M-4.814000129699707,35.04100036621094 C-4.814000129699707,35.04100036621094 -19.264999389648438,-33.88800048828125 -19.264999389648438,-33.88800048828125 C-19.6299991607666,-35.63199996948242 -18.298999786376953,-37.270999908447266 -16.517000198364258,-37.270999908447266 C-16.517000198364258,-37.270999908447266 2.065999984741211,-37.270999908447266 2.065999984741211,-37.270999908447266 C3.3940000534057617,-37.270999908447266 4.539999961853027,-36.34000015258789 4.813000202178955,-35.03900146484375 C4.813000202178955,-35.03900146484375 19.263999938964844,33.888999938964844 19.263999938964844,33.888999938964844 C19.628999710083008,35.632999420166016 18.29800033569336,37.270999908447266 16.516000747680664,37.270999908447266 C16.516000747680664,37.270999908447266 -2.066999912261963,37.270999908447266 -2.066999912261963,37.270999908447266 C-3.3949999809265137,37.270999908447266 -4.541999816894531,36.340999603271484 -4.814000129699707,35.04100036621094z"></path></g><g opacity="1" transform="matrix(1,0,0,1,141.4499969482422,162.3070068359375)"><path fill="rgb(103,62,252)" fill-opacity="1" d=" M11.54800033569336,0.34299999475479126 C11.677000045776367,0.9599999785423279 11.788999557495117,1.49399995803833 11.788999557495117,1.49399995803833 C11.788999557495117,1.49399995803833 -11.161999702453613,1.49399995803833 -11.161999702453613,1.49399995803833 C-11.161999702453613,1.49399995803833 -11.161999702453613,1.49399995803833 -11.161999702453613,1.49399995803833 C-11.161999702453613,1.49399995803833 -11.788999557495117,-1.49399995803833 -11.788999557495117,-1.49399995803833 C-11.788999557495117,-1.49399995803833 11.161999702453613,-1.49399995803833 11.161999702453613,-1.49399995803833 C11.161999702453613,-1.49399995803833 11.371000289916992,-0.49799999594688416 11.54800033569336,0.34299999475479126"></path></g><g opacity="1" transform="matrix(1,0,0,1,160.68299865722656,169.72300720214844)"><path fill="rgb(235,235,235)" fill-opacity="1" d=" M20.42799949645996,1.4950000047683716 C20.42799949645996,1.4950000047683716 -19.801000595092773,1.4950000047683716 -19.801000595092773,1.4950000047683716 C-19.801000595092773,1.4950000047683716 -19.801000595092773,1.4950000047683716 -19.801000595092773,1.4950000047683716 C-19.801000595092773,1.4950000047683716 -20.429000854492188,-1.4950000047683716 -20.429000854492188,-1.4950000047683716 C-20.429000854492188,-1.4950000047683716 19.801000595092773,-1.4950000047683716 19.801000595092773,-1.4950000047683716 C19.801000595092773,-1.4950000047683716 20.42799949645996,1.4950000047683716 20.42799949645996,1.4950000047683716 C20.42799949645996,1.4950000047683716 20.42799949645996,1.4950000047683716 20.42799949645996,1.4950000047683716"></path></g><g opacity="1" transform="matrix(1,0,0,1,165.22999572753906,177.13800048828125)"><path fill="rgb(235,235,235)" fill-opacity="1" d=" M22.61400032043457,0.33399999141693115 C22.743999481201172,0.9539999961853027 22.85700035095215,1.49399995803833 22.85700035095215,1.49399995803833 C22.85700035095215,1.49399995803833 -22.229999542236328,1.49399995803833 -22.229999542236328,1.49399995803833 C-22.229999542236328,1.49399995803833 -22.229999542236328,1.49399995803833 -22.229999542236328,1.49399995803833 C-22.229999542236328,1.49399995803833 -22.85700035095215,-1.49399995803833 -22.85700035095215,-1.49399995803833 C-22.85700035095215,-1.49399995803833 22.231000900268555,-1.49399995803833 22.231000900268555,-1.49399995803833 C22.231000900268555,-1.49399995803833 22.437999725341797,-0.5059999823570251 22.61400032043457,0.33399999141693115"></path></g><g opacity="1" transform="matrix(1,0,0,1,162.95899963378906,184.5540008544922)"><path fill="rgb(235,235,235)" fill-opacity="1" d=" M18.422000885009766,1.2869999408721924 C18.450000762939453,1.4170000553131104 18.465999603271484,1.4950000047683716 18.465999603271484,1.4950000047683716 C18.465999603271484,1.4950000047683716 -17.84000015258789,1.4950000047683716 -17.84000015258789,1.4950000047683716 C-17.84000015258789,1.4950000047683716 -17.84000015258789,1.4950000047683716 -17.84000015258789,1.4950000047683716 C-17.84000015258789,1.4950000047683716 -18.465999603271484,-1.4950000047683716 -18.465999603271484,-1.4950000047683716 C-18.465999603271484,-1.4950000047683716 17.839000701904297,-1.4950000047683716 17.839000701904297,-1.4950000047683716 C17.839000701904297,-1.4950000047683716 18.280000686645508,0.609000027179718 18.422000885009766,1.2869999408721924"></path></g><g opacity="1" transform="matrix(1,0,0,1,144.20700073242188,196.58799743652344)"><path fill="rgb(103,62,252)" fill-opacity="1" d=" M7.205999851226807,-0.2529999911785126 C7.379000186920166,0.5680000185966492 7.572999954223633,1.4950000047683716 7.572999954223633,1.4950000047683716 C7.572999954223633,1.4950000047683716 -6.945000171661377,1.4950000047683716 -6.945000171661377,1.4950000047683716 C-6.945000171661377,1.4950000047683716 -6.945000171661377,1.4950000047683716 -6.945000171661377,1.4950000047683716 C-6.945000171661377,1.4950000047683716 -7.572000026702881,-1.4950000047683716 -7.572000026702881,-1.4950000047683716 C-7.572000026702881,-1.4950000047683716 6.946000099182129,-1.4950000047683716 6.946000099182129,-1.4950000047683716 C6.946000099182129,-1.4950000047683716 7.068999767303467,-0.9070000052452087 7.205999851226807,-0.2529999911785126"></path></g><g opacity="1" transform="matrix(1,0,0,1,156.38600158691406,204.0030059814453)"><path fill="rgb(235,235,235)" fill-opacity="1" d=" M8.838000297546387,-0.028999999165534973 C8.996999740600586,0.7279999852180481 9.157999992370605,1.4950000047683716 9.157999992370605,1.4950000047683716 C9.157999992370605,1.4950000047683716 -8.531000137329102,1.4950000047683716 -8.531000137329102,1.4950000047683716 C-8.531000137329102,1.4950000047683716 -8.531000137329102,1.4950000047683716 -8.531000137329102,1.4950000047683716 C-8.531000137329102,1.4950000047683716 -9.157999992370605,-1.4950000047683716 -9.157999992370605,-1.4950000047683716 C-9.157999992370605,-1.4950000047683716 8.531000137329102,-1.4950000047683716 8.531000137329102,-1.4950000047683716 C8.531000137329102,-1.4950000047683716 8.684000015258789,-0.7670000195503235 8.838000297546387,-0.028999999165534973"></path></g><g opacity="1" transform="matrix(1,0,0,1,178.31100463867188,204.0030059814453)"><path fill="rgb(235,235,235)" fill-opacity="1" d=" M8.83899974822998,-0.029999999329447746 C8.996999740600586,0.7269999980926514 9.157999992370605,1.4950000047683716 9.157999992370605,1.4950000047683716 C9.157999992370605,1.4950000047683716 -8.529999732971191,1.4950000047683716 -8.529999732971191,1.4950000047683716 C-8.529999732971191,1.4950000047683716 -8.529999732971191,1.4950000047683716 -8.529999732971191,1.4950000047683716 C-8.529999732971191,1.4950000047683716 -9.157999992370605,-1.4950000047683716 -9.157999992370605,-1.4950000047683716 C-9.157999992370605,-1.4950000047683716 8.531999588012695,-1.4950000047683716 8.531999588012695,-1.4950000047683716 C8.531999588012695,-1.4950000047683716 8.684000015258789,-0.7680000066757202 8.83899974822998,-0.029999999329447746"></path></g><g opacity="1" transform="matrix(1,0,0,1,179.55499267578125,211.41900634765625)"><path fill="rgb(235,235,235)" fill-opacity="1" d=" M28.72599983215332,1.4950000047683716 C19.509000778198242,1.4950000047683716 -29.58099937438965,1.4950000047683716 -29.58099937438965,1.4950000047683716 C-29.58099937438965,1.4950000047683716 -29.58099937438965,1.4950000047683716 -29.58099937438965,1.4950000047683716 C-29.58099937438965,1.4950000047683716 -30.20800018310547,-1.4950000047683716 -30.20800018310547,-1.4950000047683716 C-30.20800018310547,-1.4950000047683716 29.582000732421875,-1.4950000047683716 29.582000732421875,-1.4950000047683716 C29.582000732421875,-1.4950000047683716 30.20800018310547,1.4950000047683716 30.20800018310547,1.4950000047683716 C30.20800018310547,1.4950000047683716 29.680999755859375,1.4950000047683716 28.72599983215332,1.4950000047683716"></path></g><g opacity="1" transform="matrix(1,0,0,1,174.572998046875,218.8350067138672)"><path fill="rgb(235,235,235)" fill-opacity="1" d=" M21.29599952697754,1.49399995803833 C12.824999809265137,1.49399995803833 -22.479999542236328,1.49399995803833 -22.479999542236328,1.49399995803833 C-22.479999542236328,1.49399995803833 -22.479999542236328,1.49399995803833 -22.479999542236328,1.49399995803833 C-22.479999542236328,1.49399995803833 -23.106000900268555,-1.49399995803833 -23.106000900268555,-1.49399995803833 C-23.106000900268555,-1.49399995803833 22.479999542236328,-1.49399995803833 22.479999542236328,-1.49399995803833 C22.479999542236328,-1.49399995803833 23.10700035095215,1.49399995803833 23.10700035095215,1.49399995803833 C23.10700035095215,1.49399995803833 22.451000213623047,1.49399995803833 21.29599952697754,1.49399995803833"></path></g><g opacity="1" transform="matrix(1,0,0,1,216.4530029296875,242.26199340820312)"><path fill="rgb(37,49,56)" fill-opacity="1" d=" M74.21099853515625,-2.5950000286102295 C74.21099853515625,-2.5950000286102295 -76.48300170898438,-2.5950000286102295 -76.48300170898438,-2.5950000286102295 C-80.59400177001953,-2.5950000286102295 -83.25299835205078,-0.2590000033378601 -82.39099884033203,2.5950000286102295 C-82.39099884033203,2.5950000286102295 83.25299835205078,2.5950000286102295 83.25299835205078,2.5950000286102295 C82.39099884033203,-0.2590000033378601 78.3219985961914,-2.5950000286102295 74.21099853515625,-2.5950000286102295z"></path></g><g opacity="1" transform="matrix(1,0,0,1,144.49200439453125,98.97000122070312)"><path fill="rgb(207,221,255)" fill-opacity="1" d=" M-54.03799819946289,35.040000915527344 C-54.03799819946289,35.040000915527344 -68.48899841308594,-33.88800048828125 -68.48899841308594,-33.88800048828125 C-68.85399627685547,-35.63199996948242 -67.52300262451172,-37.270999908447266 -65.74099731445312,-37.270999908447266 C-65.74099731445312,-37.270999908447266 51.29100036621094,-37.270999908447266 51.29100036621094,-37.270999908447266 C52.61899948120117,-37.270999908447266 53.76499938964844,-36.34000015258789 54.03799819946289,-35.03900146484375 C54.03799819946289,-35.03900146484375 68.48799896240234,33.888999938964844 68.48799896240234,33.888999938964844 C68.85399627685547,35.632999420166016 67.52300262451172,37.270999908447266 65.74099731445312,37.270999908447266 C65.74099731445312,37.270999908447266 -51.290000915527344,37.270999908447266 -51.290000915527344,37.270999908447266 C-52.61899948120117,37.270999908447266 -53.76599884033203,36.340999603271484 -54.03799819946289,35.040000915527344z"></path></g><g opacity="1" transform="matrix(1,0,0,1,119.49600219726562,62.650001525878906)"><path fill="rgb(103,62,252)" fill-opacity="1" d="M0 0"></path></g><g opacity="1" transform="matrix(1,0,0,1,122.85299682617188,66.86499786376953)"><path fill="rgb(103,62,252)" fill-opacity="1" d="M0 0"></path></g><g opacity="1" transform="matrix(1,0,0,1,136.593994140625,66.86499786376953)"><path fill="rgb(103,62,252)" fill-opacity="1" d="M0 0"></path></g><g opacity="1" transform="matrix(1,0,0,1,134.8070068359375,71.0790023803711)"><path fill="rgb(103,62,252)" fill-opacity="1" d="M0 0"></path></g><g opacity="1" transform="matrix(1,0,0,1,133.2100067138672,75.29299926757812)"><path fill="rgb(103,62,252)" fill-opacity="1" d="M0 0"></path></g><g opacity="1" transform="matrix(1,0,0,1,156.6280059814453,122.72699737548828)"><path fill="rgb(103,62,252)" fill-opacity="1" d="M0 0"></path></g><g opacity="1" transform="matrix(1,0,0,1,130.5959930419922,114.2969970703125)"><path fill="rgb(103,62,252)" fill-opacity="1" d="M0 0"></path></g><g opacity="1" transform="matrix(1,0,0,1,142.17999267578125,126.94200134277344)"><path fill="rgb(103,62,252)" fill-opacity="1" d="M0 0"></path></g><g opacity="1" transform="matrix(1,0,0,1,138.18099975585938,122.72699737548828)"><path fill="rgb(103,62,252)" fill-opacity="1" d="M0 0"></path></g><g opacity="1" transform="matrix(1,0,0,1,145.9149932861328,118.51200103759766)"><path fill="rgb(103,62,252)" fill-opacity="1" d="M0 0"></path></g><g opacity="1" transform="matrix(1,0,0,1,117.01699829101562,42.987998962402344)"><path fill="rgb(103,62,252)" fill-opacity="1" d=" M14.111000061035156,1.0049999952316284 C14.151000022888184,1.1979999542236328 14.177000045776367,1.3209999799728394 14.177000045776367,1.3209999799728394 C14.177000045776367,1.3209999799728394 14.177000045776367,1.3209999799728394 14.177000045776367,1.3209999799728394 C14.177000045776367,1.3209999799728394 -13.62600040435791,1.3209999799728394 -13.62600040435791,1.3209999799728394 C-13.62600040435791,1.3209999799728394 -14.177000045776367,-1.3209999799728394 -14.177000045776367,-1.3209999799728394 C-14.177000045776367,-1.3209999799728394 12.62399959564209,-1.3209999799728394 13.598999977111816,-1.3209999799728394"></path></g><g opacity="1" transform="matrix(1,0,0,1,129.86300659179688,55.63199996948242)"><path fill="rgb(103,62,252)" fill-opacity="1" d="M0 0"></path></g><g opacity="1" transform="matrix(1,0,0,1,126.35700225830078,51.417999267578125)"><path fill="rgb(103,62,252)" fill-opacity="1" d=" M-1.6759999990463257,-1.3220000267028809 C-7.526000022888184,-1.3220000267028809 -12.973999977111816,-1.3220000267028809 -12.973999977111816,-1.3220000267028809 C-12.973999977111816,-1.3220000267028809 -12.42300033569336,1.3220000267028809 -12.42300033569336,1.3220000267028809 C-12.42300033569336,1.3220000267028809 -7.041999816894531,1.3220000267028809 -1.2350000143051147,1.3220000267028809"></path></g><g opacity="1" transform="matrix(1,0,0,1,126.76499938964844,47.202999114990234)"><path fill="rgb(103,62,252)" fill-opacity="1" d=" M10.343000411987305,-1.3220000267028809 C2.9059998989105225,-1.3220000267028809 -14.26200008392334,-1.3220000267028809 -14.26200008392334,-1.3220000267028809 C-14.26200008392334,-1.3220000267028809 -13.710000038146973,1.3220000267028809 -13.710000038146973,1.3220000267028809 C-13.710000038146973,1.3220000267028809 2.9089999198913574,1.3220000267028809 10.527000427246094,1.3220000267028809"></path></g><g opacity="1" transform="matrix(1,0,0,1,120.93800354003906,82.1520004272461)"><path fill="rgb(103,62,252)" fill-opacity="1" d="M0 0"></path></g><g opacity="1" transform="matrix(1,0,0,1,142.62100219726562,94.7959976196289)"><path fill="rgb(103,62,252)" fill-opacity="1" d="M0 0"></path></g><g opacity="1" transform="matrix(1,0,0,1,130.68699645996094,90.58100128173828)"><path fill="rgb(103,62,252)" fill-opacity="1" d="M0 0"></path></g><g opacity="1" transform="matrix(1,0,0,1,147.66000366210938,90.58100128173828)"><path fill="rgb(103,62,252)" fill-opacity="1" d="M0 0"></path></g><g opacity="1" transform="matrix(1,0,0,1,139.21299743652344,86.36599731445312)"><path fill="rgb(103,62,252)" fill-opacity="1" d="M0 0"></path></g><g opacity="1" transform="matrix(1,0,0,1,141.3769989013672,107.44000244140625)"><path fill="rgb(103,62,252)" fill-opacity="1" d="M0 0"></path></g><g opacity="1" transform="matrix(1,0,0,1,129.86300659179688,103.2249984741211)"><path fill="rgb(103,62,252)" fill-opacity="1" d="M0 0"></path></g><g opacity="1" transform="matrix(1,0,0,1,141.6490020751953,103.2249984741211)"><path fill="rgb(103,62,252)" fill-opacity="1" d="M0 0"></path></g><g opacity="1" transform="matrix(1,0,0,1,141.8489990234375,99.01000213623047)"><path fill="rgb(103,62,252)" fill-opacity="1" d="M0 0"></path></g><g opacity="1" transform="matrix(1,0,0,1,179.4929962158203,95.66100311279297)"><path fill="rgb(103,62,252)" fill-opacity="1" d="M0 0"></path></g><g opacity="1" transform="matrix(1,0,0,1,196.69700622558594,95.66100311279297)"><path fill="rgb(103,62,252)" fill-opacity="1" d="M0 0"></path></g><g opacity="1" transform="matrix(1,0,0,1,194.23800659179688,99.875)"><path fill="rgb(103,62,252)" fill-opacity="1" d="M0 0"></path></g><g opacity="1" transform="matrix(1,0,0,1,192.01699829101562,104.08999633789062)"><path fill="rgb(103,62,252)" fill-opacity="1" d="M0 0"></path></g><g opacity="1" transform="matrix(1,0,0,1,205.48599243164062,81.53500366210938)"><path fill="rgb(103,62,252)" fill-opacity="1" d="M0 0"></path></g><g opacity="1" transform="matrix(1,0,0,1,201.3179931640625,77.3219985961914)"><path fill="rgb(103,62,252)" fill-opacity="1" d="M0 0"></path></g><g opacity="1" transform="matrix(1,0,0,1,193.95599365234375,73.10700225830078)"><path fill="rgb(103,62,252)" fill-opacity="1" d=" M-17.604000091552734,-1.3220000267028809 C-17.722999572753906,-1.3220000267028809 -17.78499984741211,-1.3220000267028809 -17.78499984741211,-1.3220000267028809 C-17.78499984741211,-1.3220000267028809 -17.576000213623047,-0.3199999928474426 -17.415000915527344,0.44999998807907104"></path></g><g opacity="1" transform="matrix(1,0,0,1,202.77499389648438,123.59200286865234)"><path fill="rgb(103,62,252)" fill-opacity="1" d="M0 0"></path></g><g opacity="1" transform="matrix(1,0,0,1,188.05499267578125,119.37799835205078)"><path fill="rgb(103,62,252)" fill-opacity="1" d="M0 0"></path></g><g opacity="1" transform="matrix(1,0,0,1,209.30499267578125,119.37799835205078)"><path fill="rgb(103,62,252)" fill-opacity="1" d="M0 0"></path></g><g opacity="1" transform="matrix(1,0,0,1,198.9510040283203,115.16300201416016)"><path fill="rgb(103,62,252)" fill-opacity="1" d="M0 0"></path></g><g opacity="1" transform="matrix(1,0,0,1,200.55299377441406,136.23699951171875)"><path fill="rgb(103,62,252)" fill-opacity="1" d="M0 0"></path></g><g opacity="1" transform="matrix(1,0,0,1,186.36000061035156,132.02200317382812)"><path fill="rgb(103,62,252)" fill-opacity="1" d="M0 0"></path></g><g opacity="1" transform="matrix(1,0,0,1,201.11500549316406,132.02200317382812)"><path fill="rgb(103,62,252)" fill-opacity="1" d="M0 0"></path></g><g opacity="1" transform="matrix(1,0,0,1,201.58700561523438,127.80699920654297)"><path fill="rgb(103,62,252)" fill-opacity="1" d="M0 0"></path></g><g opacity="1" transform="matrix(1,0,0,1,93.5979995727539,139.5050048828125)"><path fill="rgb(103,62,252)" fill-opacity="1" d="M0 0"></path></g><g opacity="1" transform="matrix(1,0,0,1,88.81300354003906,135.2899932861328)"><path fill="rgb(103,62,252)" fill-opacity="1" d=" M-10.883999824523926,-0.492000013589859 C-10.798999786376953,-0.08399999886751175 -10.699000358581543,0.39800000190734863 -10.623000144958496,0.7620000243186951"></path></g><g opacity="1" transform="matrix(1,0,0,1,111.90799713134766,135.2899932861328)"><path fill="rgb(103,62,252)" fill-opacity="1" d="M0 0"></path></g><g opacity="1" transform="matrix(1,0,0,1,98.71700286865234,131.0760040283203)"><path fill="rgb(103,62,252)" fill-opacity="1" d=" M-1.7079999446868896,-1.3220000267028809 C-11.991999626159668,-1.3220000267028809 -21.84000015258789,-1.3220000267028809 -21.84000015258789,-1.3220000267028809 C-21.84000015258789,-1.3220000267028809 -21.288999557495117,1.3220000267028809 -21.288999557495117,1.3220000267028809 C-21.288999557495117,1.3220000267028809 -12.611000061035156,1.3220000267028809 -3.0399999618530273,1.3220000267028809"></path></g><g opacity="1" transform="matrix(1,0,0,1,440.85699462890625,231.0989990234375)"><path fill="rgb(103,62,252)" fill-opacity="1" d=" M9.093999862670898,-13.758999824523926 C9.093999862670898,-13.758999824523926 -9.093999862670898,-13.758999824523926 -9.093999862670898,-13.758999824523926 C-9.093999862670898,-13.758999824523926 -6.974999904632568,13.758999824523926 -6.974999904632568,13.758999824523926 C-6.974999904632568,13.758999824523926 6.973999977111816,13.758999824523926 6.973999977111816,13.758999824523926 C6.973999977111816,13.758999824523926 9.093999862670898,-13.758999824523926 9.093999862670898,-13.758999824523926z"></path></g><g opacity="1" transform="matrix(1,0,0,1,440.85699462890625,231.0989990234375)"><path fill="rgb(124,162,247)" fill-opacity="1" d=" M9.093999862670898,-13.758999824523926 C9.093999862670898,-13.758999824523926 -9.093000411987305,-13.758999824523926 -9.093000411987305,-13.758999824523926 C-9.093000411987305,-13.758999824523926 -6.974999904632568,13.758999824523926 -6.974999904632568,13.758999824523926 C-6.974999904632568,13.758999824523926 6.974999904632568,13.758999824523926 6.974999904632568,13.758999824523926 C6.974999904632568,13.758999824523926 9.093999862670898,-13.758999824523926 9.093999862670898,-13.758999824523926z"></path></g><g opacity="1" transform="matrix(1,0,0,1,62.125999450683594,221.54299926757812)"><path fill="rgb(37,49,56)" fill-opacity="1" d=" M-8.611000061035156,-23.315000534057617 C-8.611000061035156,-23.315000534057617 17.538999557495117,-23.315000534057617 17.538999557495117,-23.315000534057617 C17.538999557495117,-23.315000534057617 8.612000465393066,23.31399917602539 8.612000465393066,23.31399917602539 C8.612000465393066,23.31399917602539 -17.538999557495117,23.31399917602539 -17.538999557495117,23.31399917602539 C-17.538999557495117,23.31399917602539 -8.611000061035156,-23.315000534057617 -8.611000061035156,-23.315000534057617z"></path></g><g opacity="1" transform="matrix(1,0,0,1,73.52200317382812,215.29299926757812)"><path fill="rgb(103,62,252)" fill-opacity="1" d=" M13.300000190734863,-29.565000534057617 C13.300000190734863,-29.565000534057617 -23.63800048828125,-29.565000534057617 -23.63800048828125,-29.565000534057617 C-23.63800048828125,-29.565000534057617 -13.300000190734863,29.56399917602539 -13.300000190734863,29.56399917602539 C-13.300000190734863,29.56399917602539 23.63800048828125,29.56399917602539 23.63800048828125,29.56399917602539 C23.63800048828125,29.56399917602539 13.300000190734863,-29.565000534057617 13.300000190734863,-29.565000534057617z"></path></g><g opacity="1" transform="matrix(1,0,0,1,53.959999084472656,215.29299926757812)"><path fill="rgb(103,62,252)" fill-opacity="1" d=" M-6.261000156402588,-29.565000534057617 C-6.261000156402588,-29.565000534057617 -4.076000213623047,-29.565000534057617 -4.076000213623047,-29.565000534057617 C-4.076000213623047,-29.565000534057617 6.261000156402588,29.56399917602539 6.261000156402588,29.56399917602539 C6.261000156402588,29.56399917602539 4.077000141143799,29.56399917602539 4.077000141143799,29.56399917602539 C4.077000141143799,29.56399917602539 -6.261000156402588,-29.565000534057617 -6.261000156402588,-29.565000534057617z"></path></g><g opacity="1" transform="matrix(1,0,0,1,53.959999084472656,215.29299926757812)"><path fill="rgb(0,0,0)" fill-opacity="1" d=" M-6.261000156402588,-29.565000534057617 C-6.261000156402588,-29.565000534057617 -4.076000213623047,-29.565000534057617 -4.076000213623047,-29.565000534057617 C-4.076000213623047,-29.565000534057617 6.261000156402588,29.56399917602539 6.261000156402588,29.56399917602539 C6.261000156402588,29.56399917602539 4.077000141143799,29.56399917602539 4.077000141143799,29.56399917602539 C4.077000141143799,29.56399917602539 -6.261000156402588,-29.565000534057617 -6.261000156402588,-29.565000534057617z"></path></g><g opacity="1" transform="matrix(1,0,0,1,73.52200317382812,215.29299926757812)"><path fill="rgb(255,255,255)" fill-opacity="1" d=" M-7.989999771118164,23.243999481201172 C-7.989999771118164,23.243999481201172 -16.117000579833984,-23.243999481201172 -16.117000579833984,-23.243999481201172 C-16.117000579833984,-23.243999481201172 7.988999843597412,-23.243999481201172 7.988999843597412,-23.243999481201172 C7.988999843597412,-23.243999481201172 16.117000579833984,23.243999481201172 16.117000579833984,23.243999481201172 C16.117000579833984,23.243999481201172 -7.989999771118164,23.243999481201172 -7.989999771118164,23.243999481201172z"></path></g><g opacity="1" transform="matrix(1,0,0,1,85.00299835205078,215.29299926757812)"><path fill="rgb(103,62,252)" fill-opacity="1" d=" M3.490999937057495,23.243999481201172 C3.490999937057495,23.243999481201172 -4.636000156402588,-23.243999481201172 -4.636000156402588,-23.243999481201172 C-4.636000156402588,-23.243999481201172 -3.492000102996826,-23.243999481201172 -3.492000102996826,-23.243999481201172 C-3.492000102996826,-23.243999481201172 4.636000156402588,23.243999481201172 4.636000156402588,23.243999481201172 C4.636000156402588,23.243999481201172 3.490999937057495,23.243999481201172 3.490999937057495,23.243999481201172z"></path></g><g opacity="1" transform="matrix(1,0,0,1,0,0)"><path fill="rgb(103,62,252)" fill-opacity="1" d=" M149,163"></path><path stroke-linecap="butt" stroke-linejoin="miter" fill-opacity="0" stroke-miterlimit="4" stroke="rgb(24,22,22)" stroke-opacity="1" stroke-width="1" d=" M149,163"></path></g></g><g transform="matrix(0.9975640773773193,-0.06975647062063217,0.06975647062063217,0.9975640773773193,-8.72686767578125,22.095306396484375)" opacity="1" style="display: block;"><g opacity="1" transform="matrix(1,0,0,1,268.4200134277344,110.71399688720703)"><path fill="rgb(37,49,56)" fill-opacity="1" d=" M1.343999981880188,-0.621999979019165 C1.86899995803833,0.5139999985694885 1.694000005722046,1.7120000123977661 0.9509999752044678,2.055999994277954 C0.20900000631809235,2.3989999294281006 -0.8180000185966492,1.7569999694824219 -1.343999981880188,0.6209999918937683 C-1.86899995803833,-0.5139999985694885 -1.6929999589920044,-1.7130000591278076 -0.949999988079071,-2.055999994277954 C-0.20900000631809235,-2.3989999294281006 0.8190000057220459,-1.7580000162124634 1.343999981880188,-0.621999979019165z"></path></g><g opacity="1" transform="matrix(1,0,0,1,272.2330017089844,118.95999908447266)"><path fill="rgb(255,85,82)" fill-opacity="1" d=" M-2.0160000324249268,-6.583000183105469 C-2.0160000324249268,-6.583000183105469 -1.5679999589920044,1.1610000133514404 -2.947999954223633,5.63700008392334 C-0.07199999690055847,6.581999778747559 2.947000026702881,4.145999908447266 2.947000026702881,4.145999908447266 C2.947000026702881,4.145999908447266 -2.0160000324249268,-6.583000183105469 -2.0160000324249268,-6.583000183105469z"></path></g><g opacity="1" transform="matrix(1,0,0,1,266.7659912109375,101.70500183105469)"><path fill="rgb(37,49,56)" fill-opacity="1" d=" M3.135999917984009,-0.921999990940094 C3.0199999809265137,-0.828000009059906 2.875,-0.7680000066757202 2.7149999141693115,-0.7590000033378601 C-0.5220000147819519,-0.578000009059906 -1.8930000066757202,1.684000015258789 -1.9490000009536743,1.781000018119812 C-2.1549999713897705,2.13100004196167 -2.6029999256134033,2.249000072479248 -2.9519999027252197,2.0460000038146973 C-3.302000045776367,1.8420000076293945 -3.421999931335449,1.3960000276565552 -3.2209999561309814,1.0460000038146973 C-3.1489999294281006,0.921999990940094 -1.4249999523162842,-2 2.634000062942505,-2.2269999980926514 C3.0380001068115234,-2.249000072479248 3.384999990463257,-1.940000057220459 3.4079999923706055,-1.534000039100647 C3.421999931335449,-1.2890000343322754 3.313999891281128,-1.065999984741211 3.135999917984009,-0.921999990940094z"></path></g><g opacity="1" transform="matrix(1,0,0,1,305.51300048828125,137.11099243164062)"><path fill="rgb(255,138,122)" fill-opacity="1" d=" M5.9770002365112305,-28.729999542236328 C10.354999542236328,-13.5649995803833 15.237000465393066,-1.7829999923706055 21.211000442504883,4.9079999923706055 C21.211000442504883,4.9079999923706055 21.319000244140625,16.827999114990234 1.0119999647140503,22.496999740600586 C-21.31800079345703,28.729999542236328 -12.753999710083008,14.390999794006348 -12.753999710083008,14.390999794006348 C-1.378999948501587,8.07800006866455 -2.499000072479248,-1.4429999589920044 -11.027000427246094,-5.066999912261963 C-11.027000427246094,-5.066999912261963 5.9770002365112305,-28.729999542236328 5.9770002365112305,-28.729999542236328z"></path></g><g opacity="1" transform="matrix(1,0,0,1,288.24798583984375,105.9469985961914)"><path fill="rgb(255,138,122)" fill-opacity="1" d=" M18.273000717163086,-15.779999732971191 C23.867000579833984,-1.4390000104904175 27.8700008392334,6.670000076293945 24.13800048828125,17.084999084472656 C18.52400016784668,32.750999450683594 -1.6430000066757202,34.32699966430664 -11.409000396728516,21.947999954223633 C-20.198999404907227,10.803999900817871 -27.8700008392334,-10.774999618530273 -16.788000106811523,-22.63800048828125 C-5.86899995803833,-34.32699966430664 12.678999900817871,-30.1200008392334 18.273000717163086,-15.779999732971191z"></path></g><g opacity="1" transform="matrix(1,0,0,1,290.8699951171875,98.8479995727539)"><path fill="rgb(37,49,56)" fill-opacity="1" d=" M-11.585000038146973,12.798999786376953 C-13.913999557495117,15.920999526977539 -15.689000129699707,18.280000686645508 -15.689000129699707,18.280000686645508 C-15.689000129699707,18.280000686645508 -20.464000701904297,6.421999931335449 -18.636999130249023,0.9860000014305115 C-20.96299934387207,-3.621000051498413 -25.652000427246094,3.1659998893737793 -27.422000885009766,-5.803999900817871 C-29.191999435424805,-14.77299976348877 -21.53700065612793,-24.406999588012695 -18.636999130249023,-26.39900016784668 C-18.229999542236328,-25.735000610351562 -18.25,-23.180999755859375 -18.25,-23.180999755859375 C-18.25,-23.180999755859375 -6.789000034332275,-33.395999908447266 9.529999732971191,-31.964000701904297 C8.409000396728516,-30.843000411987305 7.9730000495910645,-27.791000366210938 7.9730000495910645,-27.791000366210938 C7.9730000495910645,-27.791000366210938 24.790000915527344,-24.905000686645508 28.611000061035156,-15.437000274658203 C26.202999114990234,-16.599000930786133 24.375,-16.93199920654297 24.375,-16.93199920654297 C24.375,-16.93199920654297 29.191999435424805,-10.95300006866455 27.7810001373291,-1.7339999675750732 C26.368999481201172,7.485000133514404 25.70400047302246,17.666000366210938 25.871000289916992,21.68600082397461 C26.03700065612793,25.704999923706055 14.991000175476074,33.395999908447266 8.263999938964844,25.173999786376953 C1.5369999408721924,16.95199966430664 -11.585000038146973,12.798999786376953 -11.585000038146973,12.798999786376953z"></path></g><g opacity="1" transform="matrix(1,0,0,1,281.4110107421875,112.76699829101562)"><path fill="rgb(255,138,122)" fill-opacity="1" d=" M4.89300012588501,-4.209000110626221 C5.863999843597412,-0.699999988079071 5.374000072479248,3.0820000171661377 4.177999973297119,5.855000019073486 C2.377000093460083,10.024999618530273 -1.315000057220459,9.074000358581543 -3.1519999504089355,5.373000144958496 C-4.807000160217285,2.0409998893737793 -5.863999843597412,-4.14300012588501 -2.931999921798706,-7.105000019073486 C-0.04399999976158142,-10.02400016784668 3.7829999923706055,-8.220999717712402 4.89300012588501,-4.209000110626221z"></path></g></g><g transform="matrix(1,0,0,1,0,0)" opacity="1" style="display: block;"><g opacity="1" transform="matrix(1,0,0,1,311.8330078125,142.0279998779297)"><path fill="rgb(37,49,56)" fill-opacity="1" d=" M19.62299919128418,-2.9089999198913574 C19.2189998626709,-8.456000328063965 18.702999114990234,-14.77400016784668 15.279999732971191,-14.934000015258789 C11.513999938964844,-15.111000061035156 -10.298999786376953,-5.363999843597412 -14.961000442504883,1.5099999904632568 C-19.62299919128418,8.383000373840332 -10.522000312805176,15.111000061035156 -10.522000312805176,15.111000061035156 C-10.522000312805176,15.111000061035156 19.62299919128418,-2.9089999198913574 19.62299919128418,-2.9089999198913574z"></path></g></g><g transform="matrix(1,0,0,1,0,0)" opacity="1" style="display: block;"><g opacity="1" transform="matrix(1,0,0,1,277.3699951171875,232.1820068359375)"><path fill="rgb(255,138,122)" fill-opacity="1" d=" M9.420999526977539,-7.269999980926514 C9.420999526977539,-7.269999980926514 -9.420999526977539,-7.890999794006348 -9.420999526977539,-7.890999794006348 C-9.420999526977539,-7.890999794006348 -9.086000442504883,7.890999794006348 -9.086000442504883,7.890999794006348 C-9.086000442504883,7.890999794006348 7.354000091552734,6.197999954223633 8.07800006866455,1.8769999742507935 C8.07800006866455,1.8769999742507935 9.420999526977539,-7.269999980926514 9.420999526977539,-7.269999980926514z"></path></g><g opacity="1" transform="matrix(1,0,0,1,262.14898681640625,232.197998046875)"><path fill="rgb(255,138,122)" fill-opacity="1" d=" M-4.158999919891357,-0.164000004529953 C-4.158999919891357,-0.164000004529953 -6.135000228881836,7.9070000648498535 -6.135000228881836,7.9070000648498535 C-6.135000228881836,7.9070000648498535 6.135000228881836,7.875 6.135000228881836,7.875 C6.135000228881836,7.875 5.801000118255615,-7.9070000648498535 5.801000118255615,-7.9070000648498535 C5.801000118255615,-7.9070000648498535 -4.158999919891357,-0.164000004529953 -4.158999919891357,-0.164000004529953z"></path></g><g opacity="1" transform="matrix(1,0,0,1,320.822998046875,198.88699340820312)"><path fill="rgb(103,62,252)" fill-opacity="1" d=" M41.60100173950195,-39.56800079345703 C41.60100173950195,-39.56800079345703 41.20800018310547,-35.52000045776367 41.20800018310547,-35.52000045776367 C41.08000183105469,-34.21699905395508 40.89899826049805,-32.933998107910156 40.733001708984375,-31.64699935913086 C40.402000427246094,-29.07699966430664 39.99700164794922,-26.52199935913086 39.555999755859375,-23.968000411987305 C38.702999114990234,-18.856000900268555 37.59700012207031,-13.772000312805176 36.33399963378906,-8.654999732971191 C35.00600051879883,-3.555999994277954 33.54499816894531,1.5850000381469727 31.62299919128418,6.75 C30.645000457763672,9.342000007629395 29.628999710083008,11.932000160217285 28.402999877929688,14.572999954223633 C27.187000274658203,17.21299934387207 25.867000579833984,19.86400032043457 24.14900016784668,22.57699966430664 C23.756999969482422,23.243000030517578 23.277999877929688,23.937000274658203 22.81599998474121,24.6200008392334 C22.36199951171875,25.298999786376953 21.88800048828125,25.98200035095215 21.336000442504883,26.683000564575195 C20.79199981689453,27.381000518798828 20.31399917602539,28.05299949645996 19.66900062561035,28.766000747680664 C19.66900062561035,28.766000747680664 18.7450008392334,29.81399917602539 18.7450008392334,29.81399917602539 C18.445999145507812,30.155000686645508 18.13800048828125,30.5 17.695999145507812,30.913999557495117 C14.41100025177002,34.14899826049805 11.043000221252441,36.0989990234375 7.883999824523926,37.51100158691406 C1.565999984741211,40.2869987487793 -4.168000221252441,41.34700012207031 -9.72599983215332,41.97100067138672 C-12.494000434875488,42.29899978637695 -15.223999977111816,42.426998138427734 -17.913000106811523,42.48699951171875 C-20.600000381469727,42.5620002746582 -23.257999420166016,42.50199890136719 -25.892000198364258,42.35300064086914 C-28.52400016784668,42.23400115966797 -31.13599967956543,41.97800064086914 -33.731998443603516,41.67499923706055 C-36.36199951171875,41.35100173950195 -38.840999603271484,40.95199966430664 -41.60100173950195,40.39699935913086 C-41.60100173950195,40.39699935913086 -41.14699935913086,25.5939998626709 -41.14699935913086,25.5939998626709 C-32.05099868774414,23.785999298095703 -22.527000427246094,21.93000030517578 -14.368000030517578,19.209999084472656 C-12.321000099182129,18.552000045776367 -10.378000259399414,17.791000366210938 -8.61299991607666,16.996999740600586 C-6.843999862670898,16.231000900268555 -5.247000217437744,15.378000259399414 -4.048999786376953,14.529999732971191 C-2.8580000400543213,13.680999755859375 -2.0829999446868896,12.862000465393066 -1.9880000352859497,12.517999649047852 C-1.9880000352859497,12.517999649047852 -1.569000005722046,11.866999626159668 -1.569000005722046,11.866999626159668 C-1.4019999504089355,11.656000137329102 -1.2230000495910645,11.28600025177002 -1.0420000553131104,10.993000030517578 C-0.8579999804496765,10.706999778747559 -0.6740000247955322,10.354000091552734 -0.48899999260902405,9.984000205993652 C-0.30300000309944153,9.623000144958496 -0.10999999940395355,9.286999702453613 0.07000000029802322,8.866999626159668 C1.5549999475479126,5.718999862670898 3.003999948501587,1.7630000114440918 4.163000106811523,-2.371999979019165 C5.322000026702881,-6.539000034332275 6.422999858856201,-10.895000457763672 7.302000045776367,-15.371999740600586 C8.262999534606934,-19.826000213623047 9.026000022888184,-24.393999099731445 9.807000160217285,-28.97100067138672 C9.807000160217285,-28.97100067138672 10.883999824523926,-35.858001708984375 10.883999824523926,-35.858001708984375 C10.883999824523926,-35.858001708984375 11.852999687194824,-42.5620002746582 11.852999687194824,-42.5620002746582 C11.852999687194824,-42.5620002746582 41.60100173950195,-39.56800079345703 41.60100173950195,-39.56800079345703z"></path></g><g opacity="1" transform="matrix(1,0,0,1,320.822998046875,198.86599731445312)"><path fill="rgb(0,0,0)" fill-opacity="1" d=" M41.60100173950195,-39.547000885009766 C41.60100173950195,-39.547000885009766 41.20800018310547,-35.499000549316406 41.20800018310547,-35.499000549316406 C41.08000183105469,-34.19599914550781 40.89899826049805,-32.91299819946289 40.733001708984375,-31.625999450683594 C40.402000427246094,-29.055999755859375 39.99700164794922,-26.500999450683594 39.555999755859375,-23.94700050354004 C38.702999114990234,-18.834999084472656 37.59700012207031,-13.75100040435791 36.33399963378906,-8.633999824523926 C35.00600051879883,-3.5350000858306885 33.54499816894531,1.6059999465942383 31.62299919128418,6.770999908447266 C30.645000457763672,9.36299991607666 29.628999710083008,11.95300006866455 28.402999877929688,14.593999862670898 C27.187000274658203,17.233999252319336 25.867000579833984,19.885000228881836 24.14900016784668,22.597999572753906 C23.756999969482422,23.263999938964844 23.277999877929688,23.95800018310547 22.81599998474121,24.641000747680664 C22.36199951171875,25.31999969482422 21.88800048828125,26.003000259399414 21.336000442504883,26.70400047302246 C20.79199981689453,27.402000427246094 20.31399917602539,28.073999404907227 19.66900062561035,28.78700065612793 C19.66900062561035,28.78700065612793 18.7450008392334,29.834999084472656 18.7450008392334,29.834999084472656 C18.445999145507812,30.176000595092773 18.13800048828125,30.520999908447266 17.695999145507812,30.934999465942383 C14.41100025177002,34.16999816894531 11.043000221252441,36.119998931884766 7.883999824523926,37.53200149536133 C1.565999984741211,40.30799865722656 -4.168000221252441,41.36800003051758 -9.72599983215332,41.992000579833984 C-12.494000434875488,42.31999969482422 -15.223999977111816,42.448001861572266 -17.913000106811523,42.507999420166016 C-20.600000381469727,42.58300018310547 -23.257999420166016,42.52299880981445 -25.892000198364258,42.374000549316406 C-28.52400016784668,42.255001068115234 -31.13599967956543,41.999000549316406 -33.731998443603516,41.69599914550781 C-36.36199951171875,41.37200164794922 -38.840999603271484,40.972999572753906 -41.60100173950195,40.417999267578125 C-41.60100173950195,40.417999267578125 -41.14699935913086,25.614999771118164 -41.14699935913086,25.614999771118164 C-32.05099868774414,23.80699920654297 -22.527000427246094,21.951000213623047 -14.368000030517578,19.231000900268555 C-12.321000099182129,18.572999954223633 -10.378000259399414,17.812000274658203 -8.61299991607666,17.01799964904785 C-6.843999862670898,16.25200080871582 -5.247000217437744,15.39900016784668 -4.048999786376953,14.550999641418457 C-2.8580000400543213,13.70199966430664 -2.0829999446868896,12.883000373840332 -1.9880000352859497,12.538999557495117 C-1.9880000352859497,12.538999557495117 -1.569000005722046,11.887999534606934 -1.569000005722046,11.887999534606934 C-1.4019999504089355,11.677000045776367 -1.2230000495910645,11.307000160217285 -1.0420000553131104,11.013999938964844 C-0.8579999804496765,10.727999687194824 -0.6740000247955322,10.375 -0.48899999260902405,10.005000114440918 C-0.30300000309944153,9.644000053405762 -0.10999999940395355,9.307999610900879 0.07000000029802322,8.887999534606934 C1.5549999475479126,5.739999771118164 3.003999948501587,1.784000039100647 4.163000106811523,-2.3510000705718994 C5.322000026702881,-6.51800012588501 6.422999858856201,-10.87399959564209 7.302000045776367,-15.35099983215332 C8.262999534606934,-19.80500030517578 9.026000022888184,-24.37299919128418 9.807000160217285,-28.950000762939453 C9.807000160217285,-28.950000762939453 10.883999824523926,-35.83700180053711 10.883999824523926,-35.83700180053711 C10.883999824523926,-35.83700180053711 11.852999687194824,-42.54100036621094 11.852999687194824,-42.54100036621094 C11.852999687194824,-42.54100036621094 41.60100173950195,-39.547000885009766 41.60100173950195,-39.547000885009766z"></path></g></g><g transform="matrix(1,0,0,1,0,0)" opacity="1" style="display: block;"><g opacity="1" transform="matrix(1,0,0,1,324.8529968261719,202.43299865722656)"><path fill="rgb(103,62,252)" fill-opacity="1" d=" M-46.08700180053711,-24.344999313354492 C-41.525001525878906,-5.386000156402588 -35.63199996948242,26.398000717163086 -34.284000396728516,67.9540023803711 C-34.284000396728516,67.9540023803711 48.67300033569336,67.9540023803711 48.67300033569336,67.9540023803711 C49.132999420166016,57.69900131225586 47.39899826049805,0.0010000000474974513 39.04999923706055,-41.7869987487793 C35.875,-57.67599868774414 20.290000915527344,-67.9540023803711 4.480999946594238,-64.40399932861328 C4.348999977111816,-64.3740005493164 4.216000080108643,-64.34400177001953 4.084000110626221,-64.31400299072266 C-6.263000011444092,-61.95500183105469 -21.135000228881836,-58.15599822998047 -29.881999969482422,-54.83000183105469 C-30.000999450683594,-54.78499984741211 -30.118999481201172,-54.74100112915039 -30.238000869750977,-54.69499969482422 C-42.391998291015625,-50.0260009765625 -49.132999420166016,-37.00299835205078 -46.08700180053711,-24.344999313354492z"></path></g></g><g transform="matrix(1,0,0,1,0,0)" opacity="1" style="display: block;"><g opacity="1" transform="matrix(1,0,0,1,289.59100341796875,202.8679962158203)"><path fill="rgb(0,0,0)" fill-opacity="1" d=" M-5.934000015258789,-1.5959999561309814 C-4.7170000076293945,2.194000005722046 -3.6540000438690186,9.131999969482422 -3.50600004196167,14.395999908447266 C3.2809998989105225,7.309999942779541 5.434000015258789,-14.395999908447266 5.434000015258789,-14.395999908447266 C5.434000015258789,-14.395999908447266 -5.934000015258789,-1.5959999561309814 -5.934000015258789,-1.5959999561309814z"></path></g></g><g transform="matrix(0.9848077297210693,0.1736481785774231,-0.1736481785774231,0.9848077297210693,33.235687255859375,-48.88554382324219)" opacity="1" style="display: block;"><g opacity="1" transform="matrix(1,0,0,1,205.55099487304688,233.6479949951172)"><path fill="rgb(255,138,122)" fill-opacity="1" d=" M9.694999694824219,-7.715000152587891 C9.694999694824219,-7.715000152587891 -9.074000358581543,-9.475000381469727 -9.074000358581543,-9.475000381469727 C-9.074000358581543,-9.475000381469727 -9.694999694824219,6.298999786376953 -9.694999694824219,6.298999786376953 C-9.694999694824219,6.298999786376953 -0.027000000700354576,9.475000381469727 7.802000045776367,1.3339999914169312 C7.802000045776367,1.3339999914169312 9.694999694824219,-7.715000152587891 9.694999694824219,-7.715000152587891z"></path></g><g opacity="1" transform="matrix(1,0,0,1,188.9510040283203,232.05999755859375)"><path fill="rgb(255,138,122)" fill-opacity="1" d=" M-1.4819999933242798,-3.2309999465942383 C-1.4819999933242798,-3.2309999465942383 -7.526000022888184,7.60699987411499 -7.526000022888184,7.60699987411499 C-7.526000022888184,7.60699987411499 6.906000137329102,7.886000156402588 6.906000137329102,7.886000156402588 C6.906000137329102,7.886000156402588 7.526000022888184,-7.886000156402588 7.526000022888184,-7.886000156402588 C7.526000022888184,-7.886000156402588 -1.4819999933242798,-3.2309999465942383 -1.4819999933242798,-3.2309999465942383z"></path></g><g opacity="1" transform="matrix(1,0,0,1,259.6919860839844,200.3159942626953)"><path fill="rgb(103,62,252)" fill-opacity="1" d=" M50.20199966430664,-29.440000534057617 C48.893001556396484,-26.95199966430664 47.73699951171875,-24.763999938964844 46.433998107910156,-22.4950008392334 C45.15700149536133,-20.250999450683594 43.87300109863281,-18.016000747680664 42.529998779296875,-15.819000244140625 C39.87099838256836,-11.406000137329102 37.099998474121094,-7.059999942779541 34.1879997253418,-2.7709999084472656 C28.36199951171875,5.808000087738037 22.104000091552734,14.185999870300293 14.762999534606934,22.224000930786133 C11.11299991607666,26.26300048828125 7.111999988555908,30.176000595092773 2.4509999752044678,33.930999755859375 C1.8919999599456787,34.40299987792969 1.2419999837875366,34.86399841308594 0.6389999985694885,35.327999114990234 C0.009999999776482582,35.79399871826172 -0.5049999952316284,36.220001220703125 -1.4229999780654907,36.79199981689453 C-2.252000093460083,37.34299850463867 -3.0840001106262207,37.84000015258789 -3.9170000553131104,38.279998779296875 C-4.75600004196167,38.75199890136719 -5.578000068664551,39.14799880981445 -6.416999816894531,39.52000045776367 C-9.767999649047852,40.986000061035156 -13.032999992370605,41.88600158691406 -16.16900062561035,42.479000091552734 C-22.46500015258789,43.58700180053711 -28.312999725341797,43.5 -33.90999984741211,42.87900161743164 C-36.70600128173828,42.505001068115234 -39.439998626708984,42.07899856567383 -42.12300109863281,41.415000915527344 C-43.465999603271484,41.108001708984375 -44.79600143432617,40.755001068115234 -46.11899948120117,40.349998474121094 C-47.47999954223633,39.96099853515625 -48.678001403808594,39.513999938964844 -50.20100021362305,38.983001708984375 C-50.20100021362305,38.983001708984375 -47.85599899291992,24.36199951171875 -47.85599899291992,24.36199951171875 C-38.96200180053711,23.15399932861328 -29.344999313354492,21.606000900268555 -22.714000701904297,18.61199951171875 C-21.05900001525879,17.905000686645508 -19.634000778198242,17.079999923706055 -18.586999893188477,16.23699951171875 C-18.06100082397461,15.826000213623047 -17.577999114990234,15.446999549865723 -17.249000549316406,15.055000305175781 C-17.138999938964844,14.928999900817871 -16.709999084472656,14.545000076293945 -16.371999740600586,14.236000061035156 C-16.020999908447266,13.904999732971191 -15.67199993133545,13.623000144958496 -15.3149995803833,13.253999710083008 C-12.472000122070312,10.498000144958496 -9.607999801635742,7.199999809265137 -6.802999973297119,3.694000005722046 C-1.2209999561309814,-3.36299991607666 4.070000171661377,-11.201000213623047 9.163000106811523,-19.20800018310547 C11.711999893188477,-23.214000701904297 14.199999809265137,-27.29400062561035 16.67300033569336,-31.385000228881836 C16.67300033569336,-31.385000228881836 20.334999084472656,-37.54399871826172 20.334999084472656,-37.54399871826172 C20.334999084472656,-37.54399871826172 23.863000869750977,-43.58700180053711 23.863000869750977,-43.58700180053711 C23.863000869750977,-43.58700180053711 50.20199966430664,-29.440000534057617 50.20199966430664,-29.440000534057617z"></path></g></g><g transform="matrix(1,0,0,1,0,0)" opacity="1" style="display: block;"><g opacity="1" transform="matrix(1,0,0,1,275.4729919433594,448.64801025390625)"><path fill="rgb(255,138,122)" fill-opacity="1" d=" M11.652999877929688,17.958999633789062 C11.652999877929688,17.958999633789062 -3.8570001125335693,17.958999633789062 -3.8570001125335693,17.958999633789062 C-3.8570001125335693,17.958999633789062 -11.652999877929688,-17.958999633789062 -11.652999877929688,-17.958999633789062 C-11.652999877929688,-17.958999633789062 3.8570001125335693,-17.958999633789062 3.8570001125335693,-17.958999633789062 C3.8570001125335693,-17.958999633789062 11.652999877929688,17.958999633789062 11.652999877929688,17.958999633789062z"></path></g><g opacity="1" transform="matrix(1,0,0,1,270.9179992675781,472.0989990234375)"><path fill="rgb(37,49,56)" fill-opacity="1" d=" M-0.164000004529953,-8.815999984741211 C-0.164000004529953,-8.815999984741211 17.260000228881836,-8.815999984741211 17.260000228881836,-8.815999984741211 C17.893999099731445,-8.815999984741211 18.44300079345703,-8.37600040435791 18.58099937438965,-7.75600004196167 C18.58099937438965,-7.75600004196167 21.645000457763672,6.03000020980835 21.645000457763672,6.03000020980835 C21.96299934387207,7.459000110626221 20.839000701904297,8.812999725341797 19.374000549316406,8.788000106811523 C13.291000366210938,8.682999610900879 10.335000038146973,8.32699966430664 2.671999931335449,8.32699966430664 C-2.0420000553131104,8.32699966430664 -8.092000007629395,8.815999984741211 -14.602999687194824,8.815999984741211 C-20.969999313354492,8.815999984741211 -21.96299934387207,2.378999948501587 -19.29800033569336,1.7960000038146973 C-7.3480000495910645,-0.8180000185966492 -6.506999969482422,-4.422999858856201 -2.681999921798706,-7.861999988555908 C-1.9919999837875366,-8.482000350952148 -1.090999960899353,-8.815999984741211 -0.164000004529953,-8.815999984741211z"></path></g><g opacity="1" transform="matrix(1,0,0,1,273.5899963378906,440.6440124511719)"><path fill="rgb(0,0,0)" fill-opacity="1" d=" M5.744999885559082,-9.944000244140625 C5.744999885559082,-9.944000244140625 -9.772000312805176,-9.944000244140625 -9.772000312805176,-9.944000244140625 C-9.772000312805176,-9.944000244140625 -5.446000099182129,9.944000244140625 -5.446000099182129,9.944000244140625 C-5.446000099182129,9.944000244140625 9.770999908447266,8.569999694824219 9.770999908447266,8.569999694824219 C9.770999908447266,8.569999694824219 5.744999885559082,-9.944000244140625 5.744999885559082,-9.944000244140625z"></path></g></g><g transform="matrix(1,0,0,1,0,0)" opacity="1" style="display: block;"><g opacity="1" transform="matrix(1,0,0,1,318.11199951171875,357.75)"><path fill="rgb(103,62,252)" fill-opacity="1" d=" M-2.680000066757202,-87.36299896240234 C-2.680000066757202,-87.36299896240234 -74.70700073242188,-61.25 -76.83000183105469,-26.68600082397461 C-80.74199676513672,36.96699905395508 -54.70399856567383,87.36299896240234 -54.70399856567383,87.36299896240234 C-54.70399856567383,87.36299896240234 -30.84600067138672,84.81300354003906 -30.84600067138672,84.81300354003906 C-30.84600067138672,84.81300354003906 -35.0880012512207,64.32499694824219 -38.257999420166016,6.6579999923706055 C-42.24100112915039,-65.8030014038086 80.74199676513672,8.355999946594238 55.41400146484375,-87.36299896240234 C55.41400146484375,-87.36299896240234 -2.680000066757202,-87.36299896240234 -2.680000066757202,-87.36299896240234z"></path></g><g opacity="1" transform="matrix(1,0,0,1,308.9230041503906,357.75)"><path fill="rgb(124,162,247)" fill-opacity="1" d=" M6.508999824523926,-87.36299896240234 C6.508999824523926,-87.36299896240234 -65.51799774169922,-61.250999450683594 -67.64099884033203,-26.687000274658203 C-71.5530014038086,36.965999603271484 -45.51499938964844,87.36299896240234 -45.51499938964844,87.36299896240234 C-45.51499938964844,87.36299896240234 -21.656999588012695,84.81300354003906 -21.656999588012695,84.81300354003906 C-21.656999588012695,84.81300354003906 -25.89900016784668,64.32499694824219 -29.069000244140625,6.6579999923706055 C-33.051998138427734,-65.8030014038086 89.93099975585938,8.354999542236328 64.60299682617188,-87.36399841308594 C64.60299682617188,-87.36399841308594 6.508999824523926,-87.36299896240234 6.508999824523926,-87.36299896240234z"></path></g><g opacity="1" transform="matrix(1,0,0,1,273.5350036621094,440.6440124511719)"><path fill="rgb(103,62,252)" fill-opacity="1" d=" M-16.73699951171875,-4.314000129699707 C-16.850000381469727,-4.302000045776367 -12.940999984741211,6.275000095367432 -12.940999984741211,6.275000095367432 C-12.940999984741211,6.275000095367432 16.850000381469727,3.359999895095825 16.850000381469727,3.359999895095825 C16.850000381469727,3.359999895095825 15.354999542236328,-6.276000022888184 15.354999542236328,-6.276000022888184 C15.354999542236328,-6.276000022888184 -16.73699951171875,-4.314000129699707 -16.73699951171875,-4.314000129699707z"></path></g></g><g transform="matrix(1,0,0,1,0,0)" opacity="1" style="display: block;"><g opacity="1" transform="matrix(1,0,0,1,210.10000610351562,459.85198974609375)"><path fill="rgb(255,138,122)" fill-opacity="1" d=" M10.020999908447266,17.958999633789062 C10.020999908447266,17.958999633789062 -5.489999771118164,17.958999633789062 -5.489999771118164,17.958999633789062 C-5.489999771118164,17.958999633789062 -10.020000457763672,-17.958999633789062 -10.020000457763672,-17.958999633789062 C-10.020000457763672,-17.958999633789062 5.489999771118164,-17.958999633789062 5.489999771118164,-17.958999633789062 C5.489999771118164,-17.958999633789062 10.020999908447266,17.958999633789062 10.020999908447266,17.958999633789062z"></path></g><g opacity="1" transform="matrix(1,0,0,1,198.8800048828125,481.54901123046875)"><path fill="rgb(37,49,56)" fill-opacity="1" d=" M5.607999801635742,-8.82699966430664 C5.607999801635742,-8.82699966430664 22.545000076293945,-8.848999977111816 22.545000076293945,-8.848999977111816 C23.18000030517578,-8.848999977111816 23.729999542236328,-8.40999984741211 23.868000030517578,-7.791999816894531 C23.868000030517578,-7.791999816894531 26.950000762939453,5.989999771118164 26.950000762939453,5.989999771118164 C27.270000457763672,7.419000148773193 26.187000274658203,8.774999618530273 24.722999572753906,8.75100040435791 C18.613000869750977,8.656000137329102 9.782999992370605,8.3100004196167 2.1040000915527344,8.319999694824219 C-6.875,8.333000183105469 -8.597000122070312,8.826000213623047 -19.12700080871582,8.840999603271484 C-25.493999481201172,8.850000381469727 -27.270000457763672,2.4140000343322754 -24.606000900268555,1.8279999494552612 C-12.47599983215332,-0.8429999947547913 -8.602999687194824,-1.1330000162124634 1.8739999532699585,-7.611999988555908 C3.01200008392334,-8.315999984741211 4.269000053405762,-8.824999809265137 5.607999801635742,-8.82699966430664z"></path></g><g opacity="1" transform="matrix(1,0,0,1,209.00799560546875,451.68499755859375)"><path fill="rgb(0,0,0)" fill-opacity="1" d=" M-8.925000190734863,-9.781999588012695 C-8.925000190734863,-9.781999588012695 -6.460000038146973,9.781000137329102 -6.460000038146973,9.781000137329102 C-6.460000038146973,9.781000137329102 8.925000190734863,8.732999801635742 8.925000190734863,8.732999801635742 C8.925000190734863,8.732999801635742 6.5920000076293945,-9.781999588012695 6.5920000076293945,-9.781999588012695 C6.5920000076293945,-9.781999588012695 -8.925000190734863,-9.781999588012695 -8.925000190734863,-9.781999588012695z"></path></g></g><g transform="matrix(1,0,0,1,0,0)" opacity="1" style="display: block;"><g opacity="1" transform="matrix(1,0,0,1,268.77301025390625,356.87701416015625)"><path fill="rgb(103,62,252)" fill-opacity="1" d=" M21.79599952697754,-86.48999786376953 C21.79599952697754,-86.48999786376953 -96.23200225830078,-76.02200317382812 -94.95800018310547,-16.74799919128418 C-93.63300323486328,44.90599822998047 -70.60199737548828,86.48999786376953 -70.60199737548828,86.48999786376953 C-70.60199737548828,86.48999786376953 -47.55699920654297,86.48999786376953 -47.55699920654297,86.48999786376953 C-47.55699920654297,86.48999786376953 -51.92399978637695,54.50699996948242 -51.150001525878906,-6.191999912261963 C-50.91699981689453,-24.37700080871582 -14.175000190734863,-30.385000228881836 21.711000442504883,-32.50699996948242 C52.70899963378906,-34.3390007019043 81.7249984741211,-52.007999420166016 93.76699829101562,-80.63099670410156 C93.76699829101562,-80.63099670410156 96.23200225830078,-86.48999786376953 96.23200225830078,-86.48999786376953 C96.23200225830078,-86.48999786376953 21.79599952697754,-86.48999786376953 21.79599952697754,-86.48999786376953z"></path></g><g opacity="1" transform="matrix(1,0,0,1,269.4049987792969,356.87701416015625)"><path fill="rgb(123,161,247)" fill-opacity="1" d=" M21.163000106811523,-86.48999786376953 C21.163000106811523,-86.48999786376953 -96.86499786376953,-76.02200317382812 -95.59100341796875,-16.74799919128418 C-94.26599884033203,44.90599822998047 -71.23400115966797,86.48999786376953 -71.23400115966797,86.48999786376953 C-71.23400115966797,86.48999786376953 -48.18899917602539,86.48999786376953 -48.18899917602539,86.48999786376953 C-48.18899917602539,86.48999786376953 -52.55699920654297,54.50699996948242 -51.78300094604492,-6.191999912261963 C-51.54999923706055,-24.37700080871582 -14.807000160217285,-30.385000228881836 21.07900047302246,-32.50699996948242 C52.07699966430664,-34.3390007019043 81.09300231933594,-52.007999420166016 93.13500213623047,-80.63099670410156 C93.13500213623047,-80.63099670410156 95.5999984741211,-86.48999786376953 95.5999984741211,-86.48999786376953 C95.5999984741211,-86.48999786376953 21.163000106811523,-86.48999786376953 21.163000106811523,-86.48999786376953z"></path></g><g opacity="1" transform="matrix(1,0,0,1,208.61199951171875,442.00799560546875)"><path fill="rgb(103,62,252)" fill-opacity="1" d=" M-15.831000328063965,-4.8379998207092285 C-15.935999870300293,-4.829999923706055 -11.880999565124512,5.815999984741211 -11.880999565124512,5.815999984741211 C-11.880999565124512,5.815999984741211 15.935999870300293,3.8289999961853027 15.935999870300293,3.8289999961853027 C15.935999870300293,3.8289999961853027 14.3149995803833,-5.815999984741211 14.3149995803833,-5.815999984741211 C14.3149995803833,-5.815999984741211 -15.831000328063965,-4.8379998207092285 -15.831000328063965,-4.8379998207092285z"></path></g></g><g transform="matrix(1,0,0,1,0,0)" opacity="1" style="display: block;"><g opacity="1" transform="matrix(1,0,0,1,360.85699462890625,270.3429870605469)"><path fill="rgb(37,49,56)" fill-opacity="1" d=" M-39.314998626708984,-66.5780029296875 C-39.314998626708984,-66.5780029296875 -54.2859992980957,-8.871000289916992 -54.2859992980957,-8.871000289916992 C-58.104000091552734,5.8480000495910645 -60.04199981689453,21.08099937438965 -60.04199981689453,36.387001037597656 C-60.04199981689453,36.387001037597656 -60.04199981689453,63.21200180053711 -60.04199981689453,63.21200180053711 C-60.04199981689453,69.98400115966797 -55.04899978637695,75.4749984741211 -48.89099884033203,75.4749984741211 C-48.89099884033203,75.4749984741211 27.878999710083008,75.4749984741211 27.878999710083008,75.4749984741211 C34.03799819946289,75.4749984741211 39.029998779296875,69.98400115966797 39.029998779296875,63.21200180053711 C39.029998779296875,63.21200180053711 39.029998779296875,36.387001037597656 39.029998779296875,36.387001037597656 C39.029998779296875,21.08099937438965 40.965999603271484,5.8480000495910645 44.78499984741211,-8.871000289916992 C44.78499984741211,-8.871000289916992 58.0099983215332,-59.8489990234375 58.0099983215332,-59.8489990234375 C60.04100036621094,-67.68199920654297 54.694000244140625,-75.4749984741211 47.28799819946289,-75.4749984741211 C47.28799819946289,-75.4749984741211 -28.591999053955078,-75.4749984741211 -28.591999053955078,-75.4749984741211 C-33.571998596191406,-75.4749984741211 -37.94900131225586,-71.84500122070312 -39.314998626708984,-66.5780029296875z"></path></g><g opacity="1" transform="matrix(1,0,0,1,282.2959899902344,324.0929870605469)"><path fill="rgb(37,49,56)" fill-opacity="1" d=" M-56.22700119018555,-6.215000152587891 C-56.22700119018555,-6.215000152587891 -53.7140007019043,8.095000267028809 -53.7140007019043,8.095000267028809 C-52.391998291015625,15.623000144958496 -45.770999908447266,21.725000381469727 -38.92599868774414,21.725000381469727 C-38.92599868774414,21.725000381469727 46.40800094604492,21.725000381469727 46.40800094604492,21.725000381469727 C53.25299835205078,21.725000381469727 57.72999954223633,15.621999740600586 56.40800094604492,8.095000267028809 C56.40800094604492,8.095000267028809 53.89500045776367,-6.215000152587891 53.89500045776367,-6.215000152587891 C52.39099884033203,-14.779999732971191 44.856998443603516,-21.725000381469727 37.06800079345703,-21.725000381469727 C37.06800079345703,-21.725000381469727 -44.847999572753906,-21.725000381469727 -44.847999572753906,-21.725000381469727 C-52.637001037597656,-21.725000381469727 -57.73099899291992,-14.779999732971191 -56.22700119018555,-6.215000152587891z"></path></g><g opacity="1" transform="matrix(1,0,0,1,314.5679931640625,353.0039978027344)"><path fill="rgb(103,62,252)" fill-opacity="1" d=" M22.350000381469727,7.184999942779541 C22.350000381469727,7.184999942779541 -22.35099983215332,7.184999942779541 -22.35099983215332,7.184999942779541 C-22.35099983215332,7.184999942779541 -26.71500015258789,-7.185999870300293 -26.71500015258789,-7.185999870300293 C-26.71500015258789,-7.185999870300293 26.71500015258789,-7.185999870300293 26.71500015258789,-7.185999870300293 C26.71500015258789,-7.185999870300293 22.350000381469727,7.184999942779541 22.350000381469727,7.184999942779541z"></path></g><g opacity="1" transform="matrix(1,0,0,1,314.5679931640625,413.6099853515625)"><path fill="rgb(103,62,252)" fill-opacity="1" d="M0 0"></path></g><g opacity="1" transform="matrix(1,0,0,1,314.5679931640625,414.8940124511719)"><path fill="rgb(228,228,228)" fill-opacity="1" d=" M7.986000061035156,52.137001037597656 C7.986000061035156,52.137001037597656 -7.986000061035156,52.137001037597656 -7.986000061035156,52.137001037597656 C-7.986000061035156,52.137001037597656 -7.986000061035156,-52.137001037597656 -7.986000061035156,-52.137001037597656 C-7.986000061035156,-52.137001037597656 7.986000061035156,-50.512001037597656 7.986000061035156,-50.512001037597656 C7.986000061035156,-50.512001037597656 7.986000061035156,52.137001037597656 7.986000061035156,52.137001037597656z"></path></g><g opacity="1" transform="matrix(1,0,0,1,316.75,415.3139953613281)"><path fill="rgb(122,161,250)" fill-opacity="1" d=" M1.9079999923706055,51.71799850463867 C1.9079999923706055,51.71799850463867 -1.9079999923706055,51.71799850463867 -1.9079999923706055,51.71799850463867 C-1.9079999923706055,51.71799850463867 -1.9079999923706055,-51.71799850463867 -1.9079999923706055,-51.71799850463867 C-1.9079999923706055,-51.71799850463867 1.9079999923706055,-51.32899856567383 1.9079999923706055,-51.32899856567383 C1.9079999923706055,-51.32899856567383 1.9079999923706055,51.71799850463867 1.9079999923706055,51.71799850463867z"></path></g><g opacity="1" transform="matrix(1,0,0,1,314.5669860839844,474.2749938964844)"><path fill="rgb(103,62,252)" fill-opacity="1" d=" M36.722999572753906,9.265999794006348 C36.722999572753906,9.265999794006348 -36.722999572753906,9.265999794006348 -36.722999572753906,9.265999794006348 C-38.6870002746582,9.265999794006348 -39.50899887084961,6.75600004196167 -37.92399978637695,5.593999862670898 C-37.92399978637695,5.593999862670898 -26.266000747680664,-2.953000068664551 -26.266000747680664,-2.953000068664551 C-20.67099952697754,-7.054999828338623 -13.913000106811523,-9.265999794006348 -6.974999904632568,-9.265999794006348 C-6.974999904632568,-9.265999794006348 6.974999904632568,-9.265999794006348 6.974999904632568,-9.265999794006348 C13.913000106811523,-9.265999794006348 20.67099952697754,-7.054999828338623 26.266000747680664,-2.953000068664551 C26.266000747680664,-2.953000068664551 37.92499923706055,5.593999862670898 37.92499923706055,5.593999862670898 C39.50899887084961,6.75600004196167 38.6870002746582,9.265999794006348 36.722999572753906,9.265999794006348z"></path></g></g></g></svg>